# xmcd
#
# Track frame offsets: 
#        150
#        13900
#        26265
#        41836
#        57512
#        75911
#        90762
#        106372
#        121936
#        136904
#        151552
#        168075
#        181973
#        197070
#        209477
#        223656
#        243096
#        258692
#        272733
#        288620
#        305309
#        318503
#
# Disc length: 4420 seconds
#
# Revision: 0
# Processed by: cddbd v1.5.2PL0 Copyright (c) Steve Scherf et al.
# Submitted via: ExactAudioCopy v1.1
#
DISCID=29114216
DTITLE=Various Artist - Viva Vlaanderen Presenteert Radio 2 Zomerhit 2018 - C
DTITLE=D 1
DYEAR=2018
DGENRE=Top 40
TTITLE0=Niels Destadsbader - Verover Mij (Live)
TTITLE1=Regi Feat. Jake Reese - Ellie
TTITLE2=Gene Thomas - Soleil Soleil
TTITLE3=Natalia - Hear That Sound
TTITLE4=David Vandyck - Ik Leef Voor Jou
TTITLE5=Hooverphonic - Romantic
TTITLE6=Slongs Feat. Jack Parow - De Zon
TTITLE7=Emma Bale - Cut Loose
TTITLE8=Belle Perez - Rumba
TTITLE9=Dana Winner - Als Je Zingt
TTITLE10=Silvy - Red
TTITLE11=Bonni - Be The One
TTITLE12=De Geest - Zeeland
TTITLE13=Barbara Dex - Niet Huilen Mama
TTITLE14=Bart Peeters Feat. Trecyllia Mwanzo Mbonda - Twijfel Niet (Zo
TTITLE14=mermix)
TTITLE15=K's Choice - Waarom Ik? (Live)
TTITLE16=Axelle Red - Signe Ton Nom
TTITLE17=Metejoor - Je Hoeft Niet Bang Te Zijn
TTITLE18=Lissa Lewis - Rots
TTITLE19=Yannick Bovy - When You Need A Friend
TTITLE20=An-D - Gister In Madrid
TTITLE21=Tijs Vanneste - Soms
EXTD=
EXTT0=
EXTT1=
EXTT2=
EXTT3=
EXTT4=
EXTT5=
EXTT6=
EXTT7=
EXTT8=
EXTT9=
EXTT10=
EXTT11=
EXTT12=
EXTT13=
EXTT14=
EXTT15=
EXTT16=
EXTT17=
EXTT18=
EXTT19=
EXTT20=
EXTT21=
PLAYORDER=
